<?xml version="1.0" encoding="UTF-8" standalone="no"?>
<!DOCTYPE svg PUBLIC "-//W3C//DTD SVG 1.1//EN" "http://www.w3.org/Graphics/SVG/1.1/DTD/svg11.dtd">
<svg width="4266" height="2212" viewBox="0 0 4266 2212" version="1.1" xmlns="http://www.w3.org/2000/svg" xmlns:xlink="http://www.w3.org/1999/xlink" xml:space="preserve" xmlns:serif="http://www.serif.com/" style="fill-rule:evenodd;clip-rule:evenodd;stroke-linejoin:round;stroke-miterlimit:2;">
    <g id="Background" transform="matrix(5.859375,0,0,5.859375,-819.090479,-1697.050484)">
        <path d="M205.499,327.061C205.897,327.079 228.346,325.655 251.319,344.722C275.784,365.026 278.116,377.687 288.403,375.147C296.594,373.125 310.81,354.922 311.185,354.316C313.399,350.736 327.624,327.745 352.575,321.834C399.773,310.652 427.346,352.13 441.543,365.453C462.08,384.726 486.004,299.197 547.627,317.02C567.569,322.788 579.262,334.674 579.269,334.683C628.085,393.926 473.139,552.159 454.499,551.95C448.059,551.878 397.504,508.862 377.603,490.391C372.482,485.637 371.507,483.887 369.007,487.1C350.872,510.404 303.616,558.751 292.477,559.093C286.237,559.285 239.141,518.914 226.476,507.526C194.788,479.034 162.247,447.588 146.104,419.726C127.007,386.766 152.504,328.603 205.499,327.061Z" style="fill:rgb(225,0,37);"/>
        <path d="M794.498,591.055C784.025,590.636 770.807,590.242 748.92,571.039C744.27,566.959 694.197,511.715 689.484,506.515C648.519,461.319 616.336,435.021 636.603,414.605C704.017,346.697 745.398,315.368 755.604,307.641C769.058,297.456 793.856,280.891 827.622,295.216C865.954,311.477 886.368,369.947 844.819,407.854C816.473,433.715 810.151,434.831 817.084,443.831C825.978,455.377 890.737,522.018 839.38,570.377C818.128,590.388 803.388,590.655 794.498,591.055Z" style="fill:rgb(225,0,37);"/>
        <g transform="matrix(1,0,0,1,-6.491413,-101.964511)">
            <path d="M554.5,767.95C549.887,768.029 547.659,768.618 547.637,765.497C547.594,759.67 547.119,694.306 547.847,692.657C548.252,691.739 548.567,691.619 567.5,691.693C596.015,691.805 597.652,707.164 597.175,722.47C597.062,726.093 587.248,722.943 591.812,726.172C603.858,734.696 602.295,749.069 597.043,757.2C588.703,770.113 570.877,767.95 554.5,767.95ZM580.61,731.177C571.25,729.282 558.747,730.645 558.655,730.713C557.354,731.676 557.748,756.888 558.435,757.561C558.996,758.111 564.013,758.125 564.5,758.126C571.334,758.145 585.202,759.867 589.696,749.593C595.032,737.394 582.119,731.828 580.61,731.177ZM587.044,717.5C586.946,713.778 588.118,702.79 572.475,701.778C558.246,700.858 558.028,702.368 557.937,703.536C557.845,704.736 557.151,713.719 558.017,718.584C558.486,721.221 563.359,720.264 573.501,720.366C581.567,720.447 586.745,723.503 587.053,721.412C587.242,720.122 586.854,718.79 587.044,717.5Z" style="fill:rgb(254,0,0);"/>
        </g>
        <g transform="matrix(1,0,0,1,-6.491413,-101.964511)">
            <path d="M158.5,767.95C154.552,767.87 154.364,768.285 153.57,767.435C152.746,766.552 153.013,692.95 153.427,692.454C154.289,691.421 162.919,690.62 163.124,693.535C163.367,696.993 162.657,756.418 163.535,757.474C163.824,757.822 183.185,761.201 191.063,752.083C197.758,744.335 196.005,741.844 196.199,694.495C196.212,691.253 198.54,691.472 204.477,691.712C206.664,691.8 206.299,693.026 206.299,724.5C206.299,737.214 207.108,746.596 202.05,754.212C200.539,756.485 198.257,756.901 200.643,758.159C200.674,758.176 215.737,758.134 216.452,758.026C236.846,754.959 233.21,730.971 233.21,727.5C233.21,693.082 232.957,692.441 234.572,691.781C234.737,691.714 242.491,691.135 243.202,692.64C243.259,692.76 244.264,738.752 242.577,745.52C235.921,772.231 207.488,767.782 199.505,768.019C194.388,768.171 198.695,759.12 194.762,761.934C185.258,768.732 182.53,767.95 158.5,767.95Z" style="fill:rgb(254,0,0);"/>
        </g>
        <g transform="matrix(1,0,0,1,-6.491413,-101.964511)">
            <path d="M633.51,716.047C668.043,718.761 666.534,763.553 637.531,768.668C626.598,770.596 608.048,764.492 606.609,743.495C606.122,736.398 610.705,716.85 633.51,716.047ZM633.514,725.043C631.532,725.148 616.194,725.96 615.884,742.503C615.631,755.955 628.296,759.831 630.565,760.026C643.421,761.135 650.71,751.124 650.35,741.505C650.06,733.76 644.81,726.269 633.514,725.043Z" style="fill:rgb(254,0,0);"/>
        </g>
        <g transform="matrix(1,0,0,1,-6.491413,-101.964511)">
            <path d="M705.5,758.954C706.799,758.916 718.344,760.736 724.177,749.348C728.564,740.782 723.591,718.192 727.422,717.221C727.81,717.122 733.71,716.928 734.446,717.564C735.955,718.869 735.345,719.285 735.055,742.488C734.902,754.81 725.155,767.631 708.51,767.942C697.631,768.145 696.875,767.923 696.769,766.456C696.757,766.29 697.568,761.293 694.433,763.378C694.074,763.617 691.122,768.717 667.513,768.017C664.982,767.942 665.147,766.209 665.141,765.511C665.107,761.743 664.73,720.199 665.239,718.415C665.789,716.487 673.676,716.442 674.207,718.565C674.569,720.016 673.758,757.209 674.682,758.347C676.074,760.06 696.781,760.597 696.913,740.503C697.045,720.264 695.842,717.15 699.492,717.145C699.973,717.144 705.009,717.137 705.487,717.517C706.321,718.181 706.175,719.685 706.165,739.5C706.156,756.661 697.237,757.642 701.269,758.907C701.592,759.009 701.582,758.911 705.5,758.954Z" style="fill:rgb(253,0,0);"/>
        </g>
        <g transform="matrix(1,0,0,1,-6.491413,-101.964511)">
            <path d="M479.5,751.05C482.878,750.947 485.014,750.482 483.593,753.539C469.56,783.706 424.416,765.892 435.868,732.637C441.75,715.557 469.525,708.551 482.039,727.801C483.073,729.391 486.099,735.961 483.326,737.041C482.28,737.449 455.935,743.258 453.548,743.723C443.687,745.644 443.801,746.635 443.896,747.457C444.549,753.098 459.394,770.358 473.654,752.614C475.48,750.342 478.202,751.092 479.5,751.05ZM460.503,725.04C453.511,725.57 449.426,727.145 444.898,734.697C442.313,739.009 449.398,736.811 453.58,735.79C470.193,731.735 472.721,732.411 471.956,730.382C470.258,725.885 461.51,725.127 460.503,725.04Z" style="fill:rgb(254,0,0);"/>
        </g>
        <g transform="matrix(1,0,0,1,-6.491413,-101.964511)">
            <path d="M323.496,716.043C344.732,717.168 348.637,734.606 347.25,736.332C345.948,737.951 313.517,744.203 308.518,745.565C304.759,746.588 308.974,755.688 317.672,759.029C330.358,763.901 337.312,751.844 337.585,751.61C338.796,750.575 346.173,751.061 346.655,751.288C348.841,752.321 340.466,768.623 324.489,769.014C290.944,769.836 286.098,718.319 323.496,716.043ZM323.5,725.039C321.616,725.197 312.94,724.844 307.625,735.548C306.545,737.724 308.086,737.627 310.427,737.109C334.302,731.828 336.011,732.49 335.286,730.565C333.502,725.832 324.538,725.121 323.5,725.039Z" style="fill:rgb(254,0,0);"/>
        </g>
        <g transform="matrix(1,0,0,1,-6.491413,-101.964511)">
            <path d="M396.5,751.05C397.874,751.158 399.26,750.955 400.634,751.063C404.828,751.395 395.16,767.517 381.538,768.843C353.843,771.54 341.826,737.658 361.757,721.837C382.499,705.372 405.984,728.451 402.03,736.233C401.16,737.946 365.26,744.777 362.61,745.738C358.521,747.219 369.946,766.037 385.415,758.328C391.633,755.23 389.545,750.839 396.5,751.05ZM378.508,725.04C376.976,725.141 365.442,725.897 362.398,735.473C361.622,737.915 363.118,737.504 365.584,736.973C386.888,732.394 386.869,732.391 388.72,731.997C390.995,731.512 389.447,729.795 389.318,729.651C385.821,725.77 379.444,725.133 378.508,725.04Z" style="fill:rgb(254,0,0);"/>
        </g>
        <g transform="matrix(1,0,0,1,-6.491413,-101.964511)">
            <path d="M785.5,751.05C787.879,751.141 792,749.954 789.059,755.264C773.754,782.909 732.896,765.288 741.507,734.502C746.546,716.487 773.665,708.028 787.437,726.548C790.683,730.913 791.845,736.234 789.356,737.095C787.84,737.62 761.574,743.391 759.561,743.779C750.646,745.499 750.584,745.662 750.31,746.38C748.373,751.449 766.081,770.909 779.826,752.721C781.738,750.192 782.274,751.214 785.5,751.05ZM766.494,725.041C764.51,725.231 755.944,725.017 750.779,735.602C749.758,737.693 751.17,737.635 753.432,737.142C775.784,732.274 778.697,732.033 778.434,730.52C778.27,729.578 774.591,727.041 774.282,726.876C770.653,724.934 770.55,725.313 766.494,725.041Z" style="fill:rgb(254,0,0);"/>
        </g>
        <g transform="matrix(1,0,0,1,-6.491413,-101.964511)">
            <path d="M287.5,767.95C284.27,768.008 282.935,768.772 282.859,765.494C282.548,752.06 286.032,732.294 270.5,726.5C270.103,726.352 259.444,724.624 258.843,727.557C258.53,729.087 259.337,766.284 258.371,767.387C258.351,767.409 249.466,770.142 249.423,765.502C249.37,759.668 248.77,694.364 249.666,692.578C250.273,691.368 253.699,691.554 256.494,691.619C256.729,691.625 258.705,691.671 258.785,693.462C259.21,703.017 257.447,716.877 260.539,717.127C261.933,717.24 283.294,713.252 290.759,737.412C291.423,739.562 292.222,742.146 291.901,765.513C291.859,768.626 290.566,767.875 287.5,767.95Z" style="fill:rgb(254,0,0);"/>
        </g>
        <g transform="matrix(1,0,0,1,-6.491413,-101.964511)">
            <path d="M845.502,716.04C847.404,716.16 863.58,717.177 864.436,730.5C864.594,732.962 856.308,733.422 855.211,730.606C850.733,719.115 830.618,727.487 837.915,734.049C842.307,738 865.605,733.513 867.435,751.506C869.448,771.301 831.319,776.753 826.269,755.548C825.227,751.173 827.963,752.699 832.498,752.706C837.169,752.714 834.577,759.559 844.524,760.096C861.296,761 862.306,747.211 849.51,745.409C848.324,745.242 840.409,745.703 834.417,742.653C822.816,736.749 824.682,717.619 845.502,716.04Z" style="fill:rgb(254,0,0);"/>
        </g>
        <g transform="matrix(1,0,0,1,-6.491413,-101.964511)">
            <path d="M407.095,747.572C406.653,744.506 406.56,744.569 406.454,741.501C406.442,741.155 406.427,694.427 406.468,693.496C406.594,690.698 414.635,691.4 415.518,692.489C416.475,693.67 415.019,742.693 416.386,747.53C419.688,759.211 432.056,760.18 432.443,760.565C433.153,761.272 433.079,766.013 433.071,766.489C433.029,769.201 432.203,769.12 429.463,768.812C411.39,766.78 407.634,749.98 407.095,747.572Z" style="fill:rgb(254,0,0);"/>
        </g>
        <g transform="matrix(1,0,0,1,-6.491413,-101.964511)">
            <path d="M821.962,721.5C821.963,721.584 822.631,725.409 820.653,725.936C800.49,731.307 805.438,740.628 804.751,765.507C804.653,769.055 803.092,767.899 799.5,767.95C794.21,768.025 795.386,765.76 795.386,760.5C795.381,718.315 795.234,717.795 796.425,717.34C796.624,717.265 804.054,716.27 804.651,718.455C804.815,719.058 803.909,723.852 806.669,721.972C810.422,719.417 821.787,714.213 821.959,719.465C821.981,720.143 821.94,720.822 821.962,721.5Z" style="fill:rgb(254,0,0);"/>
        </g>
        <g transform="matrix(1,0,0,1,-6.491413,-101.964511)">
            <path d="M493.5,767.95C490.726,767.849 490.499,768.379 489.626,767.386C488.397,765.988 489.128,723.313 489.194,719.481C489.204,718.864 489.248,716.331 496.556,717.173C499.068,717.463 497.752,721.804 498.582,722.402C499.471,723.041 507.096,717.072 513.51,717.244C516.544,717.325 516.995,725.332 513.439,726.123C491.899,730.913 499.627,752.649 498.186,766.451C497.945,768.76 496.883,767.669 493.5,767.95Z" style="fill:rgb(254,0,0);"/>
        </g>
    </g>
</svg>
